<svg width="17" height="21" viewBox="0 0 17 21" fill="none" xmlns="http://www.w3.org/2000/svg">
<path fill-rule="evenodd" clip-rule="evenodd" d="M13.336 12.3513C14.2028 11.27 14.7199 9.90132 14.7199 8.40617C14.7199 4.9192 11.8931 2.09245 8.40617 2.09245C4.9192 2.09245 2.09245 4.9192 2.09245 8.40617C2.09245 9.90119 2.60944 11.2697 3.47611 12.351L3.48234 12.3587C3.66583 12.5874 3.8357 12.828 4.01219 13.062C4.31872 13.4684 4.75097 14.0391 5.25319 14.6955C6.18908 15.9186 7.35818 17.4264 8.40692 18.7209C9.45894 17.4237 10.6307 15.9135 11.5684 14.6888C12.0716 14.0317 12.5045 13.4604 12.8115 13.0537C12.9871 12.821 13.1537 12.5787 13.336 12.3513ZM14.9717 13.6625C14.9717 13.6625 14.9699 13.6649 14.9686 13.6665C14.915 13.7382 14.4231 14.3955 13.7102 15.3317C12.6525 16.7207 11.1087 18.7233 9.78874 20.3378C9.06669 21.221 7.74592 21.2207 7.0243 20.3371C4.76828 17.5749 1.85052 13.6685 1.85052 13.6685L1.84371 13.66C0.690061 12.2209 0 10.3941 0 8.40617C0 3.76357 3.76357 0 8.40617 0C13.0488 0 16.8123 3.76357 16.8123 8.40617C16.8123 9.64307 16.5452 10.8176 16.0655 11.8751C15.7753 12.5149 15.4072 13.1119 14.9735 13.654L14.9705 13.6578L14.9686 13.66H14.9735L14.9717 13.6625Z" fill="#535763"/>
</svg>
