<svg width="21" height="20" viewBox="0 0 21 20" fill="none" xmlns="http://www.w3.org/2000/svg">
<path d="M20.5 10C20.5 15.224 16.0461 19.5 10.5 19.5C4.95388 19.5 0.5 15.224 0.5 10C0.5 4.776 4.95388 0.5 10.5 0.5C16.0461 0.5 20.5 4.776 20.5 10Z" stroke="#676D75"/>
<path d="M16.7071 10.7071C17.0976 10.3166 17.0976 9.68342 16.7071 9.29289L10.3431 2.92893C9.95262 2.53841 9.31946 2.53841 8.92893 2.92893C8.53841 3.31946 8.53841 3.95262 8.92893 4.34315L14.5858 10L8.92893 15.6569C8.53841 16.0474 8.53841 16.6805 8.92893 17.0711C9.31946 17.4616 9.95262 17.4616 10.3431 17.0711L16.7071 10.7071ZM6 11L16 11V9L6 9V11Z" fill="#535763"/>
<path d="M6 9V14" stroke="#535763" stroke-width="2"/>
</svg>
