<svg width="17" height="17" viewBox="0 0 17 17" fill="none" xmlns="http://www.w3.org/2000/svg">
<path d="M4.25 5.66667V4.95833C4.25 2.61112 6.15279 0.708334 8.5 0.708334C10.8472 0.708334 12.75 2.61112 12.75 4.95833V5.66667H14.1667C14.5579 5.66667 14.875 5.9838 14.875 6.375V14.875C14.875 15.2662 14.5579 15.5833 14.1667 15.5833H2.83334C2.44214 15.5833 2.125 15.2662 2.125 14.875V6.375C2.125 5.9838 2.44214 5.66667 2.83334 5.66667H4.25ZM13.4583 7.08333H3.54167V14.1667H13.4583V7.08333ZM7.79167 11.1438C7.36823 10.8988 7.08333 10.441 7.08333 9.91666C7.08333 9.13424 7.71758 8.5 8.5 8.5C9.28243 8.5 9.91667 9.13424 9.91667 9.91666C9.91667 10.441 9.63178 10.8988 9.20833 11.1438V12.75H7.79167V11.1438ZM5.66667 5.66667H11.3333V4.95833C11.3333 3.39353 10.0648 2.125 8.5 2.125C6.93519 2.125 5.66667 3.39353 5.66667 4.95833V5.66667Z" fill="#676D75"/>
</svg>
