<svg width="17" height="17" viewBox="0 0 17 17" fill="none" xmlns="http://www.w3.org/2000/svg">
<path d="M14.1667 15.5833H12.75V14.1667C12.75 12.993 11.7986 12.0417 10.625 12.0417H6.37499C5.20139 12.0417 4.25 12.993 4.25 14.1667V15.5833H2.83333V14.1667C2.83333 12.2107 4.41899 10.625 6.37499 10.625H10.625C12.581 10.625 14.1667 12.2107 14.1667 14.1667V15.5833ZM8.49999 9.20833C6.15278 9.20833 4.25 7.30554 4.25 4.95833C4.25 2.61112 6.15278 0.708334 8.49999 0.708334C10.8472 0.708334 12.75 2.61112 12.75 4.95833C12.75 7.30554 10.8472 9.20833 8.49999 9.20833ZM8.49999 7.79167C10.0648 7.79167 11.3333 6.52314 11.3333 4.95833C11.3333 3.39353 10.0648 2.125 8.49999 2.125C6.93519 2.125 5.66666 3.39353 5.66666 4.95833C5.66666 6.52314 6.93519 7.79167 8.49999 7.79167Z" fill="#676D75"/>
</svg>
